# https://github.com/mikedh/trimesh
v -0.04500000 -0.04000000 0.00050000 0.43529412 0.65098039 0.59215686
v -0.04500000 -0.04000000 0.05550000 0.43529412 0.65098039 0.59215686
v -0.04500000 0.04000000 0.00050000 0.43529412 0.65098039 0.59215686
v -0.04500000 0.04000000 0.05550000 0.43529412 0.65098039 0.59215686
v 0.04500000 -0.04000000 0.00050000 0.43529412 0.65098039 0.59215686
v 0.04500000 -0.04000000 0.05550000 0.43529412 0.65098039 0.59215686
v 0.04500000 0.04000000 0.00050000 0.43529412 0.65098039 0.59215686
v 0.04500000 0.04000000 0.05550000 0.43529412 0.65098039 0.59215686
v -0.03500000 -0.04400000 0.01400000 0.25490196 0.31372549 0.35686275
v -0.03500000 -0.04400000 0.04400000 0.25490196 0.31372549 0.35686275
v -0.03500000 -0.04000000 0.01400000 0.25490196 0.31372549 0.35686275
v -0.03500000 -0.04000000 0.04400000 0.25490196 0.31372549 0.35686275
v 0.03500000 -0.04400000 0.01400000 0.25490196 0.31372549 0.35686275
v 0.03500000 -0.04400000 0.04400000 0.25490196 0.31372549 0.35686275
v 0.03500000 -0.04000000 0.01400000 0.25490196 0.31372549 0.35686275
v 0.03500000 -0.04000000 0.04400000 0.25490196 0.31372549 0.35686275
v 0.00650000 0.04000000 0.01700000 0.81960784 0.67450980 0.36470588
v 0.00650000 0.04000000 0.02900000 0.81960784 0.67450980 0.36470588
v 0.00650000 0.04600000 0.01700000 0.81960784 0.67450980 0.36470588
v 0.00650000 0.04600000 0.02900000 0.81960784 0.67450980 0.36470588
v 0.03150000 0.04000000 0.01700000 0.81960784 0.67450980 0.36470588
v 0.03150000 0.04000000 0.02900000 0.81960784 0.67450980 0.36470588
v 0.03150000 0.04600000 0.01700000 0.81960784 0.67450980 0.36470588
v 0.03150000 0.04600000 0.02900000 0.81960784 0.67450980 0.36470588
v 0.00000000 0.00000000 0.05650000 0.89411765 0.91764706 0.92941176
v 0.01200000 0.00000000 0.05650000 0.89411765 0.91764706 0.92941176
v 0.01200000 0.00000000 0.05950000 0.89411765 0.91764706 0.92941176
v 0.00000000 0.00000000 0.05950000 0.89411765 0.91764706 0.92941176
v 0.01189734 0.00156631 0.05650000 0.89411765 0.91764706 0.92941176
v 0.01189734 0.00156631 0.05950000 0.89411765 0.91764706 0.92941176
v 0.01159111 0.00310583 0.05650000 0.89411765 0.91764706 0.92941176
v 0.01159111 0.00310583 0.05950000 0.89411765 0.91764706 0.92941176
v 0.01108655 0.00459220 0.05650000 0.89411765 0.91764706 0.92941176
v 0.01108655 0.00459220 0.05950000 0.89411765 0.91764706 0.92941176
v 0.01039230 0.00600000 0.05650000 0.89411765 0.91764706 0.92941176
v 0.01039230 0.00600000 0.05950000 0.89411765 0.91764706 0.92941176
v 0.00952024 0.00730514 0.05650000 0.89411765 0.91764706 0.92941176
v 0.00952024 0.00730514 0.05950000 0.89411765 0.91764706 0.92941176
v 0.00848528 0.00848528 0.05650000 0.89411765 0.91764706 0.92941176
v 0.00848528 0.00848528 0.05950000 0.89411765 0.91764706 0.92941176
v 0.00730514 0.00952024 0.05650000 0.89411765 0.91764706 0.92941176
v 0.00730514 0.00952024 0.05950000 0.89411765 0.91764706 0.92941176
v 0.00600000 0.01039230 0.05650000 0.89411765 0.91764706 0.92941176
v 0.00600000 0.01039230 0.05950000 0.89411765 0.91764706 0.92941176
v 0.00459220 0.01108655 0.05650000 0.89411765 0.91764706 0.92941176
v 0.00459220 0.01108655 0.05950000 0.89411765 0.91764706 0.92941176
v 0.00310583 0.01159111 0.05650000 0.89411765 0.91764706 0.92941176
v 0.00310583 0.01159111 0.05950000 0.89411765 0.91764706 0.92941176
v 0.00156631 0.01189734 0.05650000 0.89411765 0.91764706 0.92941176
v 0.00156631 0.01189734 0.05950000 0.89411765 0.91764706 0.92941176
v 0.00000000 0.01200000 0.05650000 0.89411765 0.91764706 0.92941176
v 0.00000000 0.01200000 0.05950000 0.89411765 0.91764706 0.92941176
v -0.00156631 0.01189734 0.05650000 0.89411765 0.91764706 0.92941176
v -0.00156631 0.01189734 0.05950000 0.89411765 0.91764706 0.92941176
v -0.00310583 0.01159111 0.05650000 0.89411765 0.91764706 0.92941176
v -0.00310583 0.01159111 0.05950000 0.89411765 0.91764706 0.92941176
v -0.00459220 0.01108655 0.05650000 0.89411765 0.91764706 0.92941176
v -0.00459220 0.01108655 0.05950000 0.89411765 0.91764706 0.92941176
v -0.00600000 0.01039230 0.05650000 0.89411765 0.91764706 0.92941176
v -0.00600000 0.01039230 0.05950000 0.89411765 0.91764706 0.92941176
v -0.00730514 0.00952024 0.05650000 0.89411765 0.91764706 0.92941176
v -0.00730514 0.00952024 0.05950000 0.89411765 0.91764706 0.92941176
v -0.00848528 0.00848528 0.05650000 0.89411765 0.91764706 0.92941176
v -0.00848528 0.00848528 0.05950000 0.89411765 0.91764706 0.92941176
v -0.00952024 0.00730514 0.05650000 0.89411765 0.91764706 0.92941176
v -0.00952024 0.00730514 0.05950000 0.89411765 0.91764706 0.92941176
v -0.01039230 0.00600000 0.05650000 0.89411765 0.91764706 0.92941176
v -0.01039230 0.00600000 0.05950000 0.89411765 0.91764706 0.92941176
v -0.01108655 0.00459220 0.05650000 0.89411765 0.91764706 0.92941176
v -0.01108655 0.00459220 0.05950000 0.89411765 0.91764706 0.92941176
v -0.01159111 0.00310583 0.05650000 0.89411765 0.91764706 0.92941176
v -0.01159111 0.00310583 0.05950000 0.89411765 0.91764706 0.92941176
v -0.01189734 0.00156631 0.05650000 0.89411765 0.91764706 0.92941176
v -0.01189734 0.00156631 0.05950000 0.89411765 0.91764706 0.92941176
v -0.01200000 0.00000000 0.05650000 0.89411765 0.91764706 0.92941176
v -0.01200000 0.00000000 0.05950000 0.89411765 0.91764706 0.92941176
v -0.01189734 -0.00156631 0.05650000 0.89411765 0.91764706 0.92941176
v -0.01189734 -0.00156631 0.05950000 0.89411765 0.91764706 0.92941176
v -0.01159111 -0.00310583 0.05650000 0.89411765 0.91764706 0.92941176
v -0.01159111 -0.00310583 0.05950000 0.89411765 0.91764706 0.92941176
v -0.01108655 -0.00459220 0.05650000 0.89411765 0.91764706 0.92941176
v -0.01108655 -0.00459220 0.05950000 0.89411765 0.91764706 0.92941176
v -0.01039230 -0.00600000 0.05650000 0.89411765 0.91764706 0.92941176
v -0.01039230 -0.00600000 0.05950000 0.89411765 0.91764706 0.92941176
v -0.00952024 -0.00730514 0.05650000 0.89411765 0.91764706 0.92941176
v -0.00952024 -0.00730514 0.05950000 0.89411765 0.91764706 0.92941176
v -0.00848528 -0.00848528 0.05650000 0.89411765 0.91764706 0.92941176
v -0.00848528 -0.00848528 0.05950000 0.89411765 0.91764706 0.92941176
v -0.00730514 -0.00952024 0.05650000 0.89411765 0.91764706 0.92941176
v -0.00730514 -0.00952024 0.05950000 0.89411765 0.91764706 0.92941176
v -0.00600000 -0.01039230 0.05650000 0.89411765 0.91764706 0.92941176
v -0.00600000 -0.01039230 0.05950000 0.89411765 0.91764706 0.92941176
v -0.00459220 -0.01108655 0.05650000 0.89411765 0.91764706 0.92941176
v -0.00459220 -0.01108655 0.05950000 0.89411765 0.91764706 0.92941176
v -0.00310583 -0.01159111 0.05650000 0.89411765 0.91764706 0.92941176
v -0.00310583 -0.01159111 0.05950000 0.89411765 0.91764706 0.92941176
v -0.00156631 -0.01189734 0.05650000 0.89411765 0.91764706 0.92941176
v -0.00156631 -0.01189734 0.05950000 0.89411765 0.91764706 0.92941176
v -0.00000000 -0.01200000 0.05650000 0.89411765 0.91764706 0.92941176
v -0.00000000 -0.01200000 0.05950000 0.89411765 0.91764706 0.92941176
v 0.00156631 -0.01189734 0.05650000 0.89411765 0.91764706 0.92941176
v 0.00156631 -0.01189734 0.05950000 0.89411765 0.91764706 0.92941176
v 0.00310583 -0.01159111 0.05650000 0.89411765 0.91764706 0.92941176
v 0.00310583 -0.01159111 0.05950000 0.89411765 0.91764706 0.92941176
v 0.00459220 -0.01108655 0.05650000 0.89411765 0.91764706 0.92941176
v 0.00459220 -0.01108655 0.05950000 0.89411765 0.91764706 0.92941176
v 0.00600000 -0.01039230 0.05650000 0.89411765 0.91764706 0.92941176
v 0.00600000 -0.01039230 0.05950000 0.89411765 0.91764706 0.92941176
v 0.00730514 -0.00952024 0.05650000 0.89411765 0.91764706 0.92941176
v 0.00730514 -0.00952024 0.05950000 0.89411765 0.91764706 0.92941176
v 0.00848528 -0.00848528 0.05650000 0.89411765 0.91764706 0.92941176
v 0.00848528 -0.00848528 0.05950000 0.89411765 0.91764706 0.92941176
v 0.00952024 -0.00730514 0.05650000 0.89411765 0.91764706 0.92941176
v 0.00952024 -0.00730514 0.05950000 0.89411765 0.91764706 0.92941176
v 0.01039230 -0.00600000 0.05650000 0.89411765 0.91764706 0.92941176
v 0.01039230 -0.00600000 0.05950000 0.89411765 0.91764706 0.92941176
v 0.01108655 -0.00459220 0.05650000 0.89411765 0.91764706 0.92941176
v 0.01108655 -0.00459220 0.05950000 0.89411765 0.91764706 0.92941176
v 0.01159111 -0.00310583 0.05650000 0.89411765 0.91764706 0.92941176
v 0.01159111 -0.00310583 0.05950000 0.89411765 0.91764706 0.92941176
v 0.01189734 -0.00156631 0.05650000 0.89411765 0.91764706 0.92941176
v 0.01189734 -0.00156631 0.05950000 0.89411765 0.91764706 0.92941176
f 2 4 1
f 5 2 1
f 1 4 3
f 3 5 1
f 2 8 4
f 6 2 5
f 6 8 2
f 4 8 3
f 7 5 3
f 3 8 7
f 7 6 5
f 8 6 7
f 10 12 9
f 13 10 9
f 9 12 11
f 11 13 9
f 10 16 12
f 14 10 13
f 14 16 10
f 12 16 11
f 15 13 11
f 11 16 15
f 15 14 13
f 16 14 15
f 18 20 17
f 21 18 17
f 17 20 19
f 19 21 17
f 18 24 20
f 22 18 21
f 22 24 18
f 20 24 19
f 23 21 19
f 19 24 23
f 23 22 21
f 24 22 23
f 26 25 29
f 26 29 27
f 27 29 30
f 27 30 28
f 29 25 31
f 29 31 30
f 30 31 32
f 30 32 28
f 31 25 33
f 31 33 32
f 32 33 34
f 32 34 28
f 33 25 35
f 33 35 34
f 34 35 36
f 34 36 28
f 35 25 37
f 35 37 36
f 36 37 38
f 36 38 28
f 37 25 39
f 37 39 38
f 38 39 40
f 38 40 28
f 39 25 41
f 39 41 40
f 40 41 42
f 40 42 28
f 41 25 43
f 41 43 42
f 42 43 44
f 42 44 28
f 43 25 45
f 43 45 44
f 44 45 46
f 44 46 28
f 45 25 47
f 45 47 46
f 46 47 48
f 46 48 28
f 47 25 49
f 47 49 48
f 48 49 50
f 48 50 28
f 49 25 51
f 49 51 50
f 50 51 52
f 50 52 28
f 51 25 53
f 51 53 52
f 52 53 54
f 52 54 28
f 53 25 55
f 53 55 54
f 54 55 56
f 54 56 28
f 55 25 57
f 55 57 56
f 56 57 58
f 56 58 28
f 57 25 59
f 57 59 58
f 58 59 60
f 58 60 28
f 59 25 61
f 59 61 60
f 60 61 62
f 60 62 28
f 61 25 63
f 61 63 62
f 62 63 64
f 62 64 28
f 63 25 65
f 63 65 64
f 64 65 66
f 64 66 28
f 65 25 67
f 65 67 66
f 66 67 68
f 66 68 28
f 67 25 69
f 67 69 68
f 68 69 70
f 68 70 28
f 69 25 71
f 69 71 70
f 70 71 72
f 70 72 28
f 71 25 73
f 71 73 72
f 72 73 74
f 72 74 28
f 73 25 75
f 73 75 74
f 74 75 76
f 74 76 28
f 75 25 77
f 75 77 76
f 76 77 78
f 76 78 28
f 77 25 79
f 77 79 78
f 78 79 80
f 78 80 28
f 79 25 81
f 79 81 80
f 80 81 82
f 80 82 28
f 81 25 83
f 81 83 82
f 82 83 84
f 82 84 28
f 83 25 85
f 83 85 84
f 84 85 86
f 84 86 28
f 85 25 87
f 85 87 86
f 86 87 88
f 86 88 28
f 87 25 89
f 87 89 88
f 88 89 90
f 88 90 28
f 89 25 91
f 89 91 90
f 90 91 92
f 90 92 28
f 91 25 93
f 91 93 92
f 92 93 94
f 92 94 28
f 93 25 95
f 93 95 94
f 94 95 96
f 94 96 28
f 95 25 97
f 95 97 96
f 96 97 98
f 96 98 28
f 97 25 99
f 97 99 98
f 98 99 100
f 98 100 28
f 99 25 101
f 99 101 100
f 100 101 102
f 100 102 28
f 101 25 103
f 101 103 102
f 102 103 104
f 102 104 28
f 103 25 105
f 103 105 104
f 104 105 106
f 104 106 28
f 105 25 107
f 105 107 106
f 106 107 108
f 106 108 28
f 107 25 109
f 107 109 108
f 108 109 110
f 108 110 28
f 109 25 111
f 109 111 110
f 110 111 112
f 110 112 28
f 111 25 113
f 111 113 112
f 112 113 114
f 112 114 28
f 113 25 115
f 113 115 114
f 114 115 116
f 114 116 28
f 115 25 117
f 115 117 116
f 116 117 118
f 116 118 28
f 117 25 119
f 117 119 118
f 118 119 120
f 118 120 28
f 119 25 121
f 119 121 120
f 120 121 122
f 120 122 28
f 121 25 26
f 121 26 122
f 122 26 27
f 122 27 28

