# https://github.com/mikedh/trimesh

o geometry_0
v 0.04700000 0.00000000 0.00000000 0.32156863 0.64313725 0.56862745
v 0.05300000 0.00000000 0.00000000 0.32156863 0.64313725 0.56862745
v 0.05300000 0.00000000 0.00200000 0.32156863 0.64313725 0.56862745
v 0.04700000 0.00000000 0.00200000 0.32156863 0.64313725 0.56862745
v 0.04677368 0.00460681 0.00000000 0.32156863 0.64313725 0.56862745
v 0.05274479 0.00519491 0.00000000 0.32156863 0.64313725 0.56862745
v 0.05274479 0.00519491 0.00200000 0.32156863 0.64313725 0.56862745
v 0.04677368 0.00460681 0.00200000 0.32156863 0.64313725 0.56862745
v 0.04609691 0.00916925 0.00000000 0.32156863 0.64313725 0.56862745
v 0.05198162 0.01033979 0.00000000 0.32156863 0.64313725 0.56862745
v 0.05198162 0.01033979 0.00200000 0.32156863 0.64313725 0.56862745
v 0.04609691 0.00916925 0.00200000 0.32156863 0.64313725 0.56862745
v 0.04497620 0.01364338 0.00000000 0.32156863 0.64313725 0.56862745
v 0.05071784 0.01538509 0.00000000 0.32156863 0.64313725 0.56862745
v 0.05071784 0.01538509 0.00200000 0.32156863 0.64313725 0.56862745
v 0.04497620 0.01364338 0.00200000 0.32156863 0.64313725 0.56862745
v 0.04342234 0.01798612 0.00000000 0.32156863 0.64313725 0.56862745
v 0.04896561 0.02028222 0.00000000 0.32156863 0.64313725 0.56862745
v 0.04896561 0.02028222 0.00200000 0.32156863 0.64313725 0.56862745
v 0.04342234 0.01798612 0.00200000 0.32156863 0.64313725 0.56862745
v 0.04145030 0.02215565 0.00000000 0.32156863 0.64313725 0.56862745
v 0.04674183 0.02498403 0.00000000 0.32156863 0.64313725 0.56862745
v 0.04674183 0.02498403 0.00200000 0.32156863 0.64313725 0.56862745
v 0.04145030 0.02215565 0.00200000 0.32156863 0.64313725 0.56862745
v 0.03907907 0.02611180 0.00000000 0.32156863 0.64313725 0.56862745
v 0.04406789 0.02944522 0.00000000 0.32156863 0.64313725 0.56862745
v 0.04406789 0.02944522 0.00200000 0.32156863 0.64313725 0.56862745
v 0.03907907 0.02611180 0.00200000 0.32156863 0.64313725 0.56862745
v 0.03633149 0.02981648 0.00000000 0.32156863 0.64313725 0.56862745
v 0.04096955 0.03362284 0.00000000 0.32156863 0.64313725 0.56862745
v 0.04096955 0.03362284 0.00200000 0.32156863 0.64313725 0.56862745
v 0.03633149 0.02981648 0.00200000 0.32156863 0.64313725 0.56862745
v 0.03323402 0.03323402 0.00000000 0.32156863 0.64313725 0.56862745
v 0.03747666 0.03747666 0.00000000 0.32156863 0.64313725 0.56862745
v 0.03747666 0.03747666 0.00200000 0.32156863 0.64313725 0.56862745
v 0.03323402 0.03323402 0.00200000 0.32156863 0.64313725 0.56862745
v 0.02981648 0.03633149 0.00000000 0.32156863 0.64313725 0.56862745
v 0.03362284 0.04096955 0.00000000 0.32156863 0.64313725 0.56862745
v 0.03362284 0.04096955 0.00200000 0.32156863 0.64313725 0.56862745
v 0.02981648 0.03633149 0.00200000 0.32156863 0.64313725 0.56862745
v 0.02611180 0.03907907 0.00000000 0.32156863 0.64313725 0.56862745
v 0.02944522 0.04406789 0.00000000 0.32156863 0.64313725 0.56862745
v 0.02944522 0.04406789 0.00200000 0.32156863 0.64313725 0.56862745
v 0.02611180 0.03907907 0.00200000 0.32156863 0.64313725 0.56862745
v 0.02215565 0.04145030 0.00000000 0.32156863 0.64313725 0.56862745
v 0.02498403 0.04674183 0.00000000 0.32156863 0.64313725 0.56862745
v 0.02498403 0.04674183 0.00200000 0.32156863 0.64313725 0.56862745
v 0.02215565 0.04145030 0.00200000 0.32156863 0.64313725 0.56862745
v 0.01798612 0.04342234 0.00000000 0.32156863 0.64313725 0.56862745
v 0.02028222 0.04896561 0.00000000 0.32156863 0.64313725 0.56862745
v 0.02028222 0.04896561 0.00200000 0.32156863 0.64313725 0.56862745
v 0.01798612 0.04342234 0.00200000 0.32156863 0.64313725 0.56862745
v 0.01364338 0.04497620 0.00000000 0.32156863 0.64313725 0.56862745
v 0.01538509 0.05071784 0.00000000 0.32156863 0.64313725 0.56862745
v 0.01538509 0.05071784 0.00200000 0.32156863 0.64313725 0.56862745
v 0.01364338 0.04497620 0.00200000 0.32156863 0.64313725 0.56862745
v 0.00916925 0.04609691 0.00000000 0.32156863 0.64313725 0.56862745
v 0.01033979 0.05198162 0.00000000 0.32156863 0.64313725 0.56862745
v 0.01033979 0.05198162 0.00200000 0.32156863 0.64313725 0.56862745
v 0.00916925 0.04609691 0.00200000 0.32156863 0.64313725 0.56862745
v 0.00460681 0.04677368 0.00000000 0.32156863 0.64313725 0.56862745
v 0.00519491 0.05274479 0.00000000 0.32156863 0.64313725 0.56862745
v 0.00519491 0.05274479 0.00200000 0.32156863 0.64313725 0.56862745
v 0.00460681 0.04677368 0.00200000 0.32156863 0.64313725 0.56862745
v 0.00000000 0.04700000 0.00000000 0.32156863 0.64313725 0.56862745
v 0.00000000 0.05300000 0.00000000 0.32156863 0.64313725 0.56862745
v 0.00000000 0.05300000 0.00200000 0.32156863 0.64313725 0.56862745
v 0.00000000 0.04700000 0.00200000 0.32156863 0.64313725 0.56862745
v -0.00460681 0.04677368 0.00000000 0.32156863 0.64313725 0.56862745
v -0.00519491 0.05274479 0.00000000 0.32156863 0.64313725 0.56862745
v -0.00519491 0.05274479 0.00200000 0.32156863 0.64313725 0.56862745
v -0.00460681 0.04677368 0.00200000 0.32156863 0.64313725 0.56862745
v -0.00916925 0.04609691 0.00000000 0.32156863 0.64313725 0.56862745
v -0.01033979 0.05198162 0.00000000 0.32156863 0.64313725 0.56862745
v -0.01033979 0.05198162 0.00200000 0.32156863 0.64313725 0.56862745
v -0.00916925 0.04609691 0.00200000 0.32156863 0.64313725 0.56862745
v -0.01364338 0.04497620 0.00000000 0.32156863 0.64313725 0.56862745
v -0.01538509 0.05071784 0.00000000 0.32156863 0.64313725 0.56862745
v -0.01538509 0.05071784 0.00200000 0.32156863 0.64313725 0.56862745
v -0.01364338 0.04497620 0.00200000 0.32156863 0.64313725 0.56862745
v -0.01798612 0.04342234 0.00000000 0.32156863 0.64313725 0.56862745
v -0.02028222 0.04896561 0.00000000 0.32156863 0.64313725 0.56862745
v -0.02028222 0.04896561 0.00200000 0.32156863 0.64313725 0.56862745
v -0.01798612 0.04342234 0.00200000 0.32156863 0.64313725 0.56862745
v -0.02215565 0.04145030 0.00000000 0.32156863 0.64313725 0.56862745
v -0.02498403 0.04674183 0.00000000 0.32156863 0.64313725 0.56862745
v -0.02498403 0.04674183 0.00200000 0.32156863 0.64313725 0.56862745
v -0.02215565 0.04145030 0.00200000 0.32156863 0.64313725 0.56862745
v -0.02611180 0.03907907 0.00000000 0.32156863 0.64313725 0.56862745
v -0.02944522 0.04406789 0.00000000 0.32156863 0.64313725 0.56862745
v -0.02944522 0.04406789 0.00200000 0.32156863 0.64313725 0.56862745
v -0.02611180 0.03907907 0.00200000 0.32156863 0.64313725 0.56862745
v -0.02981648 0.03633149 0.00000000 0.32156863 0.64313725 0.56862745
v -0.03362284 0.04096955 0.00000000 0.32156863 0.64313725 0.56862745
v -0.03362284 0.04096955 0.00200000 0.32156863 0.64313725 0.56862745
v -0.02981648 0.03633149 0.00200000 0.32156863 0.64313725 0.56862745
v -0.03323402 0.03323402 0.00000000 0.32156863 0.64313725 0.56862745
v -0.03747666 0.03747666 0.00000000 0.32156863 0.64313725 0.56862745
v -0.03747666 0.03747666 0.00200000 0.32156863 0.64313725 0.56862745
v -0.03323402 0.03323402 0.00200000 0.32156863 0.64313725 0.56862745
v -0.03633149 0.02981648 0.00000000 0.32156863 0.64313725 0.56862745
v -0.04096955 0.03362284 0.00000000 0.32156863 0.64313725 0.56862745
v -0.04096955 0.03362284 0.00200000 0.32156863 0.64313725 0.56862745
v -0.03633149 0.02981648 0.00200000 0.32156863 0.64313725 0.56862745
v -0.03907907 0.02611180 0.00000000 0.32156863 0.64313725 0.56862745
v -0.04406789 0.02944522 0.00000000 0.32156863 0.64313725 0.56862745
v -0.04406789 0.02944522 0.00200000 0.32156863 0.64313725 0.56862745
v -0.03907907 0.02611180 0.00200000 0.32156863 0.64313725 0.56862745
v -0.04145030 0.02215565 0.00000000 0.32156863 0.64313725 0.56862745
v -0.04674183 0.02498403 0.00000000 0.32156863 0.64313725 0.56862745
v -0.04674183 0.02498403 0.00200000 0.32156863 0.64313725 0.56862745
v -0.04145030 0.02215565 0.00200000 0.32156863 0.64313725 0.56862745
v -0.04342234 0.01798612 0.00000000 0.32156863 0.64313725 0.56862745
v -0.04896561 0.02028222 0.00000000 0.32156863 0.64313725 0.56862745
v -0.04896561 0.02028222 0.00200000 0.32156863 0.64313725 0.56862745
v -0.04342234 0.01798612 0.00200000 0.32156863 0.64313725 0.56862745
v -0.04497620 0.01364338 0.00000000 0.32156863 0.64313725 0.56862745
v -0.05071784 0.01538509 0.00000000 0.32156863 0.64313725 0.56862745
v -0.05071784 0.01538509 0.00200000 0.32156863 0.64313725 0.56862745
v -0.04497620 0.01364338 0.00200000 0.32156863 0.64313725 0.56862745
v -0.04609691 0.00916925 0.00000000 0.32156863 0.64313725 0.56862745
v -0.05198162 0.01033979 0.00000000 0.32156863 0.64313725 0.56862745
v -0.05198162 0.01033979 0.00200000 0.32156863 0.64313725 0.56862745
v -0.04609691 0.00916925 0.00200000 0.32156863 0.64313725 0.56862745
v -0.04677368 0.00460681 0.00000000 0.32156863 0.64313725 0.56862745
v -0.05274479 0.00519491 0.00000000 0.32156863 0.64313725 0.56862745
v -0.05274479 0.00519491 0.00200000 0.32156863 0.64313725 0.56862745
v -0.04677368 0.00460681 0.00200000 0.32156863 0.64313725 0.56862745
v -0.04700000 0.00000000 0.00000000 0.32156863 0.64313725 0.56862745
v -0.05300000 0.00000000 0.00000000 0.32156863 0.64313725 0.56862745
v -0.05300000 0.00000000 0.00200000 0.32156863 0.64313725 0.56862745
v -0.04700000 0.00000000 0.00200000 0.32156863 0.64313725 0.56862745
v -0.04677368 -0.00460681 0.00000000 0.32156863 0.64313725 0.56862745
v -0.05274479 -0.00519491 0.00000000 0.32156863 0.64313725 0.56862745
v -0.05274479 -0.00519491 0.00200000 0.32156863 0.64313725 0.56862745
v -0.04677368 -0.00460681 0.00200000 0.32156863 0.64313725 0.56862745
v -0.04609691 -0.00916925 0.00000000 0.32156863 0.64313725 0.56862745
v -0.05198162 -0.01033979 0.00000000 0.32156863 0.64313725 0.56862745
v -0.05198162 -0.01033979 0.00200000 0.32156863 0.64313725 0.56862745
v -0.04609691 -0.00916925 0.00200000 0.32156863 0.64313725 0.56862745
v -0.04497620 -0.01364338 0.00000000 0.32156863 0.64313725 0.56862745
v -0.05071784 -0.01538509 0.00000000 0.32156863 0.64313725 0.56862745
v -0.05071784 -0.01538509 0.00200000 0.32156863 0.64313725 0.56862745
v -0.04497620 -0.01364338 0.00200000 0.32156863 0.64313725 0.56862745
v -0.04342234 -0.01798612 0.00000000 0.32156863 0.64313725 0.56862745
v -0.04896561 -0.02028222 0.00000000 0.32156863 0.64313725 0.56862745
v -0.04896561 -0.02028222 0.00200000 0.32156863 0.64313725 0.56862745
v -0.04342234 -0.01798612 0.00200000 0.32156863 0.64313725 0.56862745
v -0.04145030 -0.02215565 0.00000000 0.32156863 0.64313725 0.56862745
v -0.04674183 -0.02498403 0.00000000 0.32156863 0.64313725 0.56862745
v -0.04674183 -0.02498403 0.00200000 0.32156863 0.64313725 0.56862745
v -0.04145030 -0.02215565 0.00200000 0.32156863 0.64313725 0.56862745
v -0.03907907 -0.02611180 0.00000000 0.32156863 0.64313725 0.56862745
v -0.04406789 -0.02944522 0.00000000 0.32156863 0.64313725 0.56862745
v -0.04406789 -0.02944522 0.00200000 0.32156863 0.64313725 0.56862745
v -0.03907907 -0.02611180 0.00200000 0.32156863 0.64313725 0.56862745
v -0.03633149 -0.02981648 0.00000000 0.32156863 0.64313725 0.56862745
v -0.04096955 -0.03362284 0.00000000 0.32156863 0.64313725 0.56862745
v -0.04096955 -0.03362284 0.00200000 0.32156863 0.64313725 0.56862745
v -0.03633149 -0.02981648 0.00200000 0.32156863 0.64313725 0.56862745
v -0.03323402 -0.03323402 0.00000000 0.32156863 0.64313725 0.56862745
v -0.03747666 -0.03747666 0.00000000 0.32156863 0.64313725 0.56862745
v -0.03747666 -0.03747666 0.00200000 0.32156863 0.64313725 0.56862745
v -0.03323402 -0.03323402 0.00200000 0.32156863 0.64313725 0.56862745
v -0.02981648 -0.03633149 0.00000000 0.32156863 0.64313725 0.56862745
v -0.03362284 -0.04096955 0.00000000 0.32156863 0.64313725 0.56862745
v -0.03362284 -0.04096955 0.00200000 0.32156863 0.64313725 0.56862745
v -0.02981648 -0.03633149 0.00200000 0.32156863 0.64313725 0.56862745
v -0.02611180 -0.03907907 0.00000000 0.32156863 0.64313725 0.56862745
v -0.02944522 -0.04406789 0.00000000 0.32156863 0.64313725 0.56862745
v -0.02944522 -0.04406789 0.00200000 0.32156863 0.64313725 0.56862745
v -0.02611180 -0.03907907 0.00200000 0.32156863 0.64313725 0.56862745
v -0.02215565 -0.04145030 0.00000000 0.32156863 0.64313725 0.56862745
v -0.02498403 -0.04674183 0.00000000 0.32156863 0.64313725 0.56862745
v -0.02498403 -0.04674183 0.00200000 0.32156863 0.64313725 0.56862745
v -0.02215565 -0.04145030 0.00200000 0.32156863 0.64313725 0.56862745
v -0.01798612 -0.04342234 0.00000000 0.32156863 0.64313725 0.56862745
v -0.02028222 -0.04896561 0.00000000 0.32156863 0.64313725 0.56862745
v -0.02028222 -0.04896561 0.00200000 0.32156863 0.64313725 0.56862745
v -0.01798612 -0.04342234 0.00200000 0.32156863 0.64313725 0.56862745
v -0.01364338 -0.04497620 0.00000000 0.32156863 0.64313725 0.56862745
v -0.01538509 -0.05071784 0.00000000 0.32156863 0.64313725 0.56862745
v -0.01538509 -0.05071784 0.00200000 0.32156863 0.64313725 0.56862745
v -0.01364338 -0.04497620 0.00200000 0.32156863 0.64313725 0.56862745
v -0.00916925 -0.04609691 0.00000000 0.32156863 0.64313725 0.56862745
v -0.01033979 -0.05198162 0.00000000 0.32156863 0.64313725 0.56862745
v -0.01033979 -0.05198162 0.00200000 0.32156863 0.64313725 0.56862745
v -0.00916925 -0.04609691 0.00200000 0.32156863 0.64313725 0.56862745
v -0.00460681 -0.04677368 0.00000000 0.32156863 0.64313725 0.56862745
v -0.00519491 -0.05274479 0.00000000 0.32156863 0.64313725 0.56862745
v -0.00519491 -0.05274479 0.00200000 0.32156863 0.64313725 0.56862745
v -0.00460681 -0.04677368 0.00200000 0.32156863 0.64313725 0.56862745
v -0.00000000 -0.04700000 0.00000000 0.32156863 0.64313725 0.56862745
v -0.00000000 -0.05300000 0.00000000 0.32156863 0.64313725 0.56862745
v -0.00000000 -0.05300000 0.00200000 0.32156863 0.64313725 0.56862745
v -0.00000000 -0.04700000 0.00200000 0.32156863 0.64313725 0.56862745
v 0.00460681 -0.04677368 0.00000000 0.32156863 0.64313725 0.56862745
v 0.00519491 -0.05274479 0.00000000 0.32156863 0.64313725 0.56862745
v 0.00519491 -0.05274479 0.00200000 0.32156863 0.64313725 0.56862745
v 0.00460681 -0.04677368 0.00200000 0.32156863 0.64313725 0.56862745
v 0.00916925 -0.04609691 0.00000000 0.32156863 0.64313725 0.56862745
v 0.01033979 -0.05198162 0.00000000 0.32156863 0.64313725 0.56862745
v 0.01033979 -0.05198162 0.00200000 0.32156863 0.64313725 0.56862745
v 0.00916925 -0.04609691 0.00200000 0.32156863 0.64313725 0.56862745
v 0.01364338 -0.04497620 0.00000000 0.32156863 0.64313725 0.56862745
v 0.01538509 -0.05071784 0.00000000 0.32156863 0.64313725 0.56862745
v 0.01538509 -0.05071784 0.00200000 0.32156863 0.64313725 0.56862745
v 0.01364338 -0.04497620 0.00200000 0.32156863 0.64313725 0.56862745
v 0.01798612 -0.04342234 0.00000000 0.32156863 0.64313725 0.56862745
v 0.02028222 -0.04896561 0.00000000 0.32156863 0.64313725 0.56862745
v 0.02028222 -0.04896561 0.00200000 0.32156863 0.64313725 0.56862745
v 0.01798612 -0.04342234 0.00200000 0.32156863 0.64313725 0.56862745
v 0.02215565 -0.04145030 0.00000000 0.32156863 0.64313725 0.56862745
v 0.02498403 -0.04674183 0.00000000 0.32156863 0.64313725 0.56862745
v 0.02498403 -0.04674183 0.00200000 0.32156863 0.64313725 0.56862745
v 0.02215565 -0.04145030 0.00200000 0.32156863 0.64313725 0.56862745
v 0.02611180 -0.03907907 0.00000000 0.32156863 0.64313725 0.56862745
v 0.02944522 -0.04406789 0.00000000 0.32156863 0.64313725 0.56862745
v 0.02944522 -0.04406789 0.00200000 0.32156863 0.64313725 0.56862745
v 0.02611180 -0.03907907 0.00200000 0.32156863 0.64313725 0.56862745
v 0.02981648 -0.03633149 0.00000000 0.32156863 0.64313725 0.56862745
v 0.03362284 -0.04096955 0.00000000 0.32156863 0.64313725 0.56862745
v 0.03362284 -0.04096955 0.00200000 0.32156863 0.64313725 0.56862745
v 0.02981648 -0.03633149 0.00200000 0.32156863 0.64313725 0.56862745
v 0.03323402 -0.03323402 0.00000000 0.32156863 0.64313725 0.56862745
v 0.03747666 -0.03747666 0.00000000 0.32156863 0.64313725 0.56862745
v 0.03747666 -0.03747666 0.00200000 0.32156863 0.64313725 0.56862745
v 0.03323402 -0.03323402 0.00200000 0.32156863 0.64313725 0.56862745
v 0.03633149 -0.02981648 0.00000000 0.32156863 0.64313725 0.56862745
v 0.04096955 -0.03362284 0.00000000 0.32156863 0.64313725 0.56862745
v 0.04096955 -0.03362284 0.00200000 0.32156863 0.64313725 0.56862745
v 0.03633149 -0.02981648 0.00200000 0.32156863 0.64313725 0.56862745
v 0.03907907 -0.02611180 0.00000000 0.32156863 0.64313725 0.56862745
v 0.04406789 -0.02944522 0.00000000 0.32156863 0.64313725 0.56862745
v 0.04406789 -0.02944522 0.00200000 0.32156863 0.64313725 0.56862745
v 0.03907907 -0.02611180 0.00200000 0.32156863 0.64313725 0.56862745
v 0.04145030 -0.02215565 0.00000000 0.32156863 0.64313725 0.56862745
v 0.04674183 -0.02498403 0.00000000 0.32156863 0.64313725 0.56862745
v 0.04674183 -0.02498403 0.00200000 0.32156863 0.64313725 0.56862745
v 0.04145030 -0.02215565 0.00200000 0.32156863 0.64313725 0.56862745
v 0.04342234 -0.01798612 0.00000000 0.32156863 0.64313725 0.56862745
v 0.04896561 -0.02028222 0.00000000 0.32156863 0.64313725 0.56862745
v 0.04896561 -0.02028222 0.00200000 0.32156863 0.64313725 0.56862745
v 0.04342234 -0.01798612 0.00200000 0.32156863 0.64313725 0.56862745
v 0.04497620 -0.01364338 0.00000000 0.32156863 0.64313725 0.56862745
v 0.05071784 -0.01538509 0.00000000 0.32156863 0.64313725 0.56862745
v 0.05071784 -0.01538509 0.00200000 0.32156863 0.64313725 0.56862745
v 0.04497620 -0.01364338 0.00200000 0.32156863 0.64313725 0.56862745
v 0.04609691 -0.00916925 0.00000000 0.32156863 0.64313725 0.56862745
v 0.05198162 -0.01033979 0.00000000 0.32156863 0.64313725 0.56862745
v 0.05198162 -0.01033979 0.00200000 0.32156863 0.64313725 0.56862745
v 0.04609691 -0.00916925 0.00200000 0.32156863 0.64313725 0.56862745
v 0.04677368 -0.00460681 0.00000000 0.32156863 0.64313725 0.56862745
v 0.05274479 -0.00519491 0.00000000 0.32156863 0.64313725 0.56862745
v 0.05274479 -0.00519491 0.00200000 0.32156863 0.64313725 0.56862745
v 0.04677368 -0.00460681 0.00200000 0.32156863 0.64313725 0.56862745
v 0.03100000 -0.04700000 0.00150000 0.32156863 0.64313725 0.56862745
v 0.03100000 -0.04700000 0.00450000 0.32156863 0.64313725 0.56862745
v 0.03100000 -0.02500000 0.00150000 0.32156863 0.64313725 0.56862745
v 0.03100000 -0.02500000 0.00450000 0.32156863 0.64313725 0.56862745
v 0.04300000 -0.04700000 0.00150000 0.32156863 0.64313725 0.56862745
v 0.04300000 -0.04700000 0.00450000 0.32156863 0.64313725 0.56862745
v 0.04300000 -0.02500000 0.00150000 0.32156863 0.64313725 0.56862745
v 0.04300000 -0.02500000 0.00450000 0.32156863 0.64313725 0.56862745
f 1 5 2
f 2 5 6
f 2 6 3
f 3 6 7
f 3 7 4
f 4 7 8
f 4 8 1
f 1 8 5
f 5 9 6
f 6 9 10
f 6 10 7
f 7 10 11
f 7 11 8
f 8 11 12
f 8 12 5
f 5 12 9
f 9 13 10
f 10 13 14
f 10 14 11
f 11 14 15
f 11 15 12
f 12 15 16
f 12 16 9
f 9 16 13
f 13 17 14
f 14 17 18
f 14 18 15
f 15 18 19
f 15 19 16
f 16 19 20
f 16 20 13
f 13 20 17
f 17 21 18
f 18 21 22
f 18 22 19
f 19 22 23
f 19 23 20
f 20 23 24
f 20 24 17
f 17 24 21
f 21 25 22
f 22 25 26
f 22 26 23
f 23 26 27
f 23 27 24
f 24 27 28
f 24 28 21
f 21 28 25
f 25 29 26
f 26 29 30
f 26 30 27
f 27 30 31
f 27 31 28
f 28 31 32
f 28 32 25
f 25 32 29
f 29 33 30
f 30 33 34
f 30 34 31
f 31 34 35
f 31 35 32
f 32 35 36
f 32 36 29
f 29 36 33
f 33 37 34
f 34 37 38
f 34 38 35
f 35 38 39
f 35 39 36
f 36 39 40
f 36 40 33
f 33 40 37
f 37 41 38
f 38 41 42
f 38 42 39
f 39 42 43
f 39 43 40
f 40 43 44
f 40 44 37
f 37 44 41
f 41 45 42
f 42 45 46
f 42 46 43
f 43 46 47
f 43 47 44
f 44 47 48
f 44 48 41
f 41 48 45
f 45 49 46
f 46 49 50
f 46 50 47
f 47 50 51
f 47 51 48
f 48 51 52
f 48 52 45
f 45 52 49
f 49 53 50
f 50 53 54
f 50 54 51
f 51 54 55
f 51 55 52
f 52 55 56
f 52 56 49
f 49 56 53
f 53 57 54
f 54 57 58
f 54 58 55
f 55 58 59
f 55 59 56
f 56 59 60
f 56 60 53
f 53 60 57
f 57 61 58
f 58 61 62
f 58 62 59
f 59 62 63
f 59 63 60
f 60 63 64
f 60 64 57
f 57 64 61
f 61 65 62
f 62 65 66
f 62 66 63
f 63 66 67
f 63 67 64
f 64 67 68
f 64 68 61
f 61 68 65
f 65 69 66
f 66 69 70
f 66 70 67
f 67 70 71
f 67 71 68
f 68 71 72
f 68 72 65
f 65 72 69
f 69 73 70
f 70 73 74
f 70 74 71
f 71 74 75
f 71 75 72
f 72 75 76
f 72 76 69
f 69 76 73
f 73 77 74
f 74 77 78
f 74 78 75
f 75 78 79
f 75 79 76
f 76 79 80
f 76 80 73
f 73 80 77
f 77 81 78
f 78 81 82
f 78 82 79
f 79 82 83
f 79 83 80
f 80 83 84
f 80 84 77
f 77 84 81
f 81 85 82
f 82 85 86
f 82 86 83
f 83 86 87
f 83 87 84
f 84 87 88
f 84 88 81
f 81 88 85
f 85 89 86
f 86 89 90
f 86 90 87
f 87 90 91
f 87 91 88
f 88 91 92
f 88 92 85
f 85 92 89
f 89 93 90
f 90 93 94
f 90 94 91
f 91 94 95
f 91 95 92
f 92 95 96
f 92 96 89
f 89 96 93
f 93 97 94
f 94 97 98
f 94 98 95
f 95 98 99
f 95 99 96
f 96 99 100
f 96 100 93
f 93 100 97
f 97 101 98
f 98 101 102
f 98 102 99
f 99 102 103
f 99 103 100
f 100 103 104
f 100 104 97
f 97 104 101
f 101 105 102
f 102 105 106
f 102 106 103
f 103 106 107
f 103 107 104
f 104 107 108
f 104 108 101
f 101 108 105
f 105 109 106
f 106 109 110
f 106 110 107
f 107 110 111
f 107 111 108
f 108 111 112
f 108 112 105
f 105 112 109
f 109 113 110
f 110 113 114
f 110 114 111
f 111 114 115
f 111 115 112
f 112 115 116
f 112 116 109
f 109 116 113
f 113 117 114
f 114 117 118
f 114 118 115
f 115 118 119
f 115 119 116
f 116 119 120
f 116 120 113
f 113 120 117
f 117 121 118
f 118 121 122
f 118 122 119
f 119 122 123
f 119 123 120
f 120 123 124
f 120 124 117
f 117 124 121
f 121 125 122
f 122 125 126
f 122 126 123
f 123 126 127
f 123 127 124
f 124 127 128
f 124 128 121
f 121 128 125
f 125 129 126
f 126 129 130
f 126 130 127
f 127 130 131
f 127 131 128
f 128 131 132
f 128 132 125
f 125 132 129
f 129 133 130
f 130 133 134
f 130 134 131
f 131 134 135
f 131 135 132
f 132 135 136
f 132 136 129
f 129 136 133
f 133 137 134
f 134 137 138
f 134 138 135
f 135 138 139
f 135 139 136
f 136 139 140
f 136 140 133
f 133 140 137
f 137 141 138
f 138 141 142
f 138 142 139
f 139 142 143
f 139 143 140
f 140 143 144
f 140 144 137
f 137 144 141
f 141 145 142
f 142 145 146
f 142 146 143
f 143 146 147
f 143 147 144
f 144 147 148
f 144 148 141
f 141 148 145
f 145 149 146
f 146 149 150
f 146 150 147
f 147 150 151
f 147 151 148
f 148 151 152
f 148 152 145
f 145 152 149
f 149 153 150
f 150 153 154
f 150 154 151
f 151 154 155
f 151 155 152
f 152 155 156
f 152 156 149
f 149 156 153
f 153 157 154
f 154 157 158
f 154 158 155
f 155 158 159
f 155 159 156
f 156 159 160
f 156 160 153
f 153 160 157
f 157 161 158
f 158 161 162
f 158 162 159
f 159 162 163
f 159 163 160
f 160 163 164
f 160 164 157
f 157 164 161
f 161 165 162
f 162 165 166
f 162 166 163
f 163 166 167
f 163 167 164
f 164 167 168
f 164 168 161
f 161 168 165
f 165 169 166
f 166 169 170
f 166 170 167
f 167 170 171
f 167 171 168
f 168 171 172
f 168 172 165
f 165 172 169
f 169 173 170
f 170 173 174
f 170 174 171
f 171 174 175
f 171 175 172
f 172 175 176
f 172 176 169
f 169 176 173
f 173 177 174
f 174 177 178
f 174 178 175
f 175 178 179
f 175 179 176
f 176 179 180
f 176 180 173
f 173 180 177
f 177 181 178
f 178 181 182
f 178 182 179
f 179 182 183
f 179 183 180
f 180 183 184
f 180 184 177
f 177 184 181
f 181 185 182
f 182 185 186
f 182 186 183
f 183 186 187
f 183 187 184
f 184 187 188
f 184 188 181
f 181 188 185
f 185 189 186
f 186 189 190
f 186 190 187
f 187 190 191
f 187 191 188
f 188 191 192
f 188 192 185
f 185 192 189
f 189 193 190
f 190 193 194
f 190 194 191
f 191 194 195
f 191 195 192
f 192 195 196
f 192 196 189
f 189 196 193
f 193 197 194
f 194 197 198
f 194 198 195
f 195 198 199
f 195 199 196
f 196 199 200
f 196 200 193
f 193 200 197
f 197 201 198
f 198 201 202
f 198 202 199
f 199 202 203
f 199 203 200
f 200 203 204
f 200 204 197
f 197 204 201
f 201 205 202
f 202 205 206
f 202 206 203
f 203 206 207
f 203 207 204
f 204 207 208
f 204 208 201
f 201 208 205
f 205 209 206
f 206 209 210
f 206 210 207
f 207 210 211
f 207 211 208
f 208 211 212
f 208 212 205
f 205 212 209
f 209 213 210
f 210 213 214
f 210 214 211
f 211 214 215
f 211 215 212
f 212 215 216
f 212 216 209
f 209 216 213
f 213 217 214
f 214 217 218
f 214 218 215
f 215 218 219
f 215 219 216
f 216 219 220
f 216 220 213
f 213 220 217
f 217 221 218
f 218 221 222
f 218 222 219
f 219 222 223
f 219 223 220
f 220 223 224
f 220 224 217
f 217 224 221
f 221 225 222
f 222 225 226
f 222 226 223
f 223 226 227
f 223 227 224
f 224 227 228
f 224 228 221
f 221 228 225
f 225 229 226
f 226 229 230
f 226 230 227
f 227 230 231
f 227 231 228
f 228 231 232
f 228 232 225
f 225 232 229
f 229 233 230
f 230 233 234
f 230 234 231
f 231 234 235
f 231 235 232
f 232 235 236
f 232 236 229
f 229 236 233
f 233 237 234
f 234 237 238
f 234 238 235
f 235 238 239
f 235 239 236
f 236 239 240
f 236 240 233
f 233 240 237
f 237 241 238
f 238 241 242
f 238 242 239
f 239 242 243
f 239 243 240
f 240 243 244
f 240 244 237
f 237 244 241
f 241 245 242
f 242 245 246
f 242 246 243
f 243 246 247
f 243 247 244
f 244 247 248
f 244 248 241
f 241 248 245
f 245 249 246
f 246 249 250
f 246 250 247
f 247 250 251
f 247 251 248
f 248 251 252
f 248 252 245
f 245 252 249
f 249 253 250
f 250 253 254
f 250 254 251
f 251 254 255
f 251 255 252
f 252 255 256
f 252 256 249
f 249 256 253
f 253 1 254
f 254 1 2
f 254 2 255
f 255 2 3
f 255 3 256
f 256 3 4
f 256 4 253
f 253 4 1
f 258 260 257
f 261 258 257
f 257 260 259
f 259 261 257
f 258 264 260
f 262 258 261
f 262 264 258
f 260 264 259
f 263 261 259
f 259 264 263
f 263 262 261
f 264 262 263

