# https://github.com/mikedh/trimesh
v -0.00450000 -0.03750000 0.00300000 0.43529412 0.65098039 0.59215686
v -0.00450000 -0.03750000 0.00700000 0.43529412 0.65098039 0.59215686
v -0.00450000 0.03750000 0.00300000 0.43529412 0.65098039 0.59215686
v -0.00450000 0.03750000 0.00700000 0.43529412 0.65098039 0.59215686
v 0.00450000 -0.03750000 0.00300000 0.43529412 0.65098039 0.59215686
v 0.00450000 -0.03750000 0.00700000 0.43529412 0.65098039 0.59215686
v 0.00450000 0.03750000 0.00300000 0.43529412 0.65098039 0.59215686
v 0.00450000 0.03750000 0.00700000 0.43529412 0.65098039 0.59215686
v 0.00000000 0.03500000 0.00500000 0.43529412 0.65098039 0.59215686
v 0.02200000 0.03500000 0.00500000 0.43529412 0.65098039 0.59215686
v 0.00000000 0.06900000 0.00500000 0.43529412 0.65098039 0.59215686
v -0.01100000 0.03500000 -0.01405256 0.43529412 0.65098039 0.59215686
v -0.01100000 0.03500000 0.02405256 0.43529412 0.65098039 0.59215686
f 2 4 1
f 5 2 1
f 1 4 3
f 3 5 1
f 2 8 4
f 6 2 5
f 6 8 2
f 4 8 3
f 7 5 3
f 3 8 7
f 7 6 5
f 8 6 7
f 10 9 12
f 10 12 11
f 12 9 13
f 12 13 11
f 13 9 10
f 13 10 11

